HIERARCHY
ROOT Hips
{
	OFFSET 0.00000 0.00000 0.00000
	CHANNELS 6 Xposition Yposition Zposition Zrotation Yrotation Xrotation 
	JOINT LHipJoint
	{
		OFFSET 0 0 0
		CHANNELS 3 Zrotation Yrotation Xrotation
		JOINT LeftUpLeg
		{
			OFFSET 1.55766 -1.60504 1.11378
			CHANNELS 3 Zrotation Yrotation Xrotation
			JOINT LeftLeg
			{
				OFFSET 2.29047 -6.29302 0.00000
				CHANNELS 3 Zrotation Yrotation Xrotation
				JOINT LeftFoot
				{
					OFFSET 2.52265 -6.93093 0.00000
					CHANNELS 3 Zrotation Yrotation Xrotation
					JOINT LeftToeBase
					{
						OFFSET 0.17633 -0.48446 2.02656
						CHANNELS 3 Zrotation Yrotation Xrotation
						End Site
						{
							OFFSET 0.00000 -0.00000 1.04989
						}
					}
				}
			}
		}
	}
	JOINT RHipJoint
	{
		OFFSET 0 0 0
		CHANNELS 3 Zrotation Yrotation Xrotation
		JOINT RightUpLeg
		{
			OFFSET -1.48599 -1.60504 1.11378
			CHANNELS 3 Zrotation Yrotation Xrotation
			JOINT RightLeg
			{
				OFFSET -2.27280 -6.24448 0.00000
				CHANNELS 3 Zrotation Yrotation Xrotation
				JOINT RightFoot
				{
					OFFSET -2.50834 -6.89161 0.00000
					CHANNELS 3 Zrotation Yrotation Xrotation
					JOINT RightToeBase
					{
						OFFSET -0.26967 -0.74090 2.08741
						CHANNELS 3 Zrotation Yrotation Xrotation
						End Site
						{
							OFFSET -0.00000 -0.00000 1.10614
						}
					}
				}
			}
		}
	}
	JOINT LowerBack
	{
		OFFSET 0 0 0
		CHANNELS 3 Zrotation Yrotation Xrotation
		JOINT Spine
		{
			OFFSET 0.06481 2.02437 -0.08472
			CHANNELS 3 Zrotation Yrotation Xrotation
			JOINT Spine1
			{
				OFFSET 0.00015 1.96711 0.18069
				CHANNELS 3 Zrotation Yrotation Xrotation
				JOINT Neck
				{
					OFFSET 0 0 0
					CHANNELS 3 Zrotation Yrotation Xrotation
					JOINT Neck1
					{
						OFFSET -0.29961 1.68293 -0.13041
						CHANNELS 3 Zrotation Yrotation Xrotation
						JOINT Head
						{
							OFFSET 0.59697 1.61501 -0.14669
							CHANNELS 3 Zrotation Yrotation Xrotation
							End Site
							{
								OFFSET 0.22973 1.74906 -0.10148
							}
						}
					}
				}
				JOINT LeftShoulder
				{
					OFFSET 0 0 0
					CHANNELS 3 Zrotation Yrotation Xrotation
					JOINT LeftArm
					{
						OFFSET 3.37968 1.02893 0.31147
						CHANNELS 3 Zrotation Yrotation Xrotation
						JOINT LeftForeArm
						{
							OFFSET 5.19807 -0.00000 -0.00000
							CHANNELS 3 Zrotation Yrotation Xrotation
							JOINT LeftHand
							{
								OFFSET 3.09370 -0.00000 -0.00000
								CHANNELS 3 Zrotation Yrotation Xrotation
								JOINT LeftFingerBase
								{
									OFFSET 0 0 0
									CHANNELS 3 Zrotation Yrotation Xrotation
									JOINT LeftHandIndex1
									{
										OFFSET 0.67263 -0.00000 -0.00000
										CHANNELS 3 Zrotation Yrotation Xrotation
										End Site
										{
											OFFSET 0.54229 -0.00000 -0.00000
										}
									}
								}
								JOINT LThumb
								{
									OFFSET 0 0 0
									CHANNELS 3 Zrotation Yrotation Xrotation
									End Site
									{
										OFFSET 0.55057 -0.00000 0.55057
									}
								}
							}
						}
					}
				}
				JOINT RightShoulder
				{
					OFFSET 0 0 0
					CHANNELS 3 Zrotation Yrotation Xrotation
					JOINT RightArm
					{
						OFFSET -3.38254 0.96355 -0.16120
						CHANNELS 3 Zrotation Yrotation Xrotation
						JOINT RightForeArm
						{
							OFFSET -5.45222 -0.00000 -0.00000
							CHANNELS 3 Zrotation Yrotation Xrotation
							JOINT RightHand
							{
								OFFSET -3.01284 -0.00000 -0.00000
								CHANNELS 3 Zrotation Yrotation Xrotation
								JOINT RightFingerBase
								{
									OFFSET 0 0 0
									CHANNELS 3 Zrotation Yrotation Xrotation
									JOINT RightHandIndex1
									{
										OFFSET -0.62230 -0.00000 -0.00000
										CHANNELS 3 Zrotation Yrotation Xrotation
										End Site
										{
											OFFSET -0.50171 -0.00000 -0.00000
										}
									}
								}
								JOINT RThumb
								{
									OFFSET 0 0 0
									CHANNELS 3 Zrotation Yrotation Xrotation
									End Site
									{
										OFFSET -0.50937 -0.00000 0.50937
									}
								}
							}
						}
					}
				}
			}
		}
	}
}
MOTION
Frames: 6
Frame Time: .0083333
5.6702 9.6041 15.6490 -6.8584 7.3752 63.1792 0.0000 0.0000 0.0000 -8.2423 -9.3383 0.3659 0.4929 4.5016 12.4922 -1.6763 -22.1906 7.9470 1.5540 7.8678 22.3134 0.0000 0.0000 0.0000 6.0212 23.7099 -156.2565 -19.0457 -19.9781 87.2087 0.2978 11.7203 11.4481 -0.0342 -1.1944 3.2838 2.7597 0.7460 23.0777 2.4593 1.9891 0.8870 0.5285 0.8378 -11.9775 -19.5875 -16.7006 -8.1355 56.6828 -15.5417 -34.6535 27.2753 -11.9872 2.0343 0.0000 0.0000 0.0000 -71.7324 -58.7022 37.0012 15.7362 -25.1616 -3.5330 -0.0000 0.0000 -19.3013 17.8516 -33.1097 -9.9775 -7.1250 0.0000 -0.0000 -7.9722 -4.1400 8.6082 0.0000 0.0000 0.0000 44.0242 60.9924 82.9780 -21.5594 32.4755 -6.3476 0.0000 -0.0000 -26.9656 -60.8435 -34.1749 45.1963 7.1250 -0.0000 -0.0000 -69.8978 -75.8119 55.6366
5.6761 9.6200 15.6219 -6.9589 7.0602 63.3721 0.0000 0.0000 0.0000 -8.4616 -9.2987 0.1317 0.4895 4.4858 12.4477 -1.6875 -22.2711 7.6039 1.5206 7.7865 22.0675 0.0000 0.0000 0.0000 6.2197 24.0722 -156.1897 -18.8570 -19.9686 86.6565 0.2955 11.9270 11.9544 -0.0468 -1.3967 3.8410 2.7040 0.8684 23.0453 2.2954 2.1024 1.0467 0.3399 0.8892 -11.7701 -19.5905 -16.7086 -7.9686 56.6541 -15.6147 -34.4894 27.2008 -12.0321 2.0707 0.0000 0.0000 0.0000 -71.0195 -59.4356 36.9224 15.7106 -25.1267 -3.5222 -0.0000 0.0000 -19.6031 17.6229 -32.7264 -9.7447 -7.1250 0.0000 -0.0000 -8.0517 -3.7134 8.6398 0.0000 0.0000 0.0000 43.5386 61.4450 82.7194 -21.2272 32.0926 -6.1702 0.0000 -0.0000 -27.2234 -61.7997 -34.5732 46.6222 7.1250 -0.0000 -0.0000 -74.8423 -76.0233 60.5314
5.6824 9.6357 15.5951 -7.0385 6.7677 63.5459 0.0000 0.0000 0.0000 -8.6721 -9.2618 -0.0780 0.4849 4.4652 12.3892 -1.7000 -22.3624 7.2911 1.4933 7.7197 21.8658 0.0000 0.0000 0.0000 6.4301 24.3998 -156.1101 -18.6741 -19.9578 86.1206 0.2918 12.1254 12.4565 -0.0607 -1.5897 4.3730 2.6660 0.9788 23.0226 2.1250 2.2045 1.2114 0.1387 0.9348 -11.5616 -19.5753 -16.7166 -7.8073 56.6434 -15.6960 -34.2927 27.1281 -12.0825 2.1236 -0.0000 -0.0000 0.0000 -70.3592 -60.1962 36.8275 15.6803 -25.0852 -3.5093 -0.0000 0.0000 -20.0183 17.3729 -32.3766 -9.5105 -7.1250 0.0000 -0.0000 -8.1492 -3.3169 8.6934 -0.0000 -0.0000 0.0000 43.1128 61.8624 82.3885 -20.8306 31.6300 -5.9608 0.0000 -0.0000 -27.2067 -62.8150 -34.9746 48.1397 7.1250 -0.0000 -0.0000 -80.1669 -76.1335 65.8134
5.6889 9.6510 15.5686 -7.0876 6.4974 63.6955 0.0000 0.0000 0.0000 -8.8809 -9.2398 -0.2617 0.4802 4.4440 12.3293 -1.7143 -22.4680 7.0018 1.4697 7.6611 21.6892 0.0000 0.0000 0.0000 6.6585 24.6864 -156.0174 -18.4981 -19.9458 85.6050 0.2871 12.3211 12.9553 -0.0753 -1.7700 4.8704 2.6372 1.0791 23.0117 1.9531 2.2963 1.3862 -0.0652 0.9756 -11.3479 -19.5414 -16.7267 -7.6523 56.6428 -15.7845 -34.0742 27.0503 -12.1373 2.1869 0.0000 0.0000 0.0000 -69.7861 -60.9852 36.7227 15.6420 -25.0328 -3.4931 -0.0000 0.0000 -20.4973 17.1376 -32.0895 -9.3032 -7.1250 0.0000 -0.0000 -8.2476 -2.9867 8.7554 0.0000 0.0000 0.0000 42.7091 62.2437 81.9509 -20.3900 31.1093 -5.7315 0.0000 -0.0000 -26.9327 -63.8973 -35.3555 49.7447 7.1250 -0.0000 -0.0000 -85.7543 -76.1086 71.3507
5.6951 9.6665 15.5421 -7.1089 6.2562 63.8393 0.0000 0.0000 0.0000 -9.0726 -9.2388 -0.4484 0.4763 4.4259 12.2782 -1.7312 -22.5909 6.7469 1.4531 7.6195 21.5643 0.0000 0.0000 0.0000 6.8951 24.9358 -155.9242 -18.3268 -19.9327 85.1026 0.2803 12.4987 13.4448 -0.0915 -1.9512 5.3709 2.6219 1.1763 22.9895 1.7868 2.3873 1.5756 -0.2688 1.0165 -11.1112 -19.5024 -16.7462 -7.5146 56.6525 -15.8842 -33.8524 26.9663 -12.1975 2.2616 -0.0000 -0.0000 0.0000 -69.3193 -61.8225 36.6272 15.5899 -24.9615 -3.4711 -0.0000 0.0000 -20.9630 16.9403 -31.8750 -9.1375 -7.1250 0.0000 -0.0000 -8.3341 -2.7364 8.8145 -0.0000 -0.0000 0.0000 42.2310 62.5920 81.3607 -19.9470 30.5785 -5.5044 0.0000 -0.0000 -26.4836 -65.0368 -35.7201 51.4321 7.1250 -0.0000 -0.0000 -91.4775 -75.9406 77.0254
5.7012 9.6818 15.5153 -7.0955 6.0336 63.9690 0.0000 0.0000 0.0000 -9.2640 -9.2689 -0.6375 0.4747 4.4187 12.2577 -1.7512 -22.7335 6.5128 1.4435 7.5954 21.4916 0.0000 0.0000 0.0000 7.1331 25.1451 -155.8282 -18.1606 -19.9187 84.6150 0.2722 12.6664 13.9213 -0.1081 -2.1204 5.8386 2.6071 1.2695 22.9693 1.6288 2.4742 1.7813 -0.4609 1.0566 -10.8577 -19.4757 -16.7742 -7.3946 56.6647 -15.9938 -33.6303 26.8762 -12.2596 2.3472 0.0000 0.0000 0.0000 -68.9492 -62.6987 36.5388 15.5202 -24.8658 -3.4417 -0.0000 0.0000 -21.3766 16.8008 -31.7440 -9.0263 -7.1250 0.0000 -0.0000 -8.3981 -2.5805 8.8618 0.0000 0.0000 0.0000 41.6386 62.9174 80.6072 -19.5421 30.0867 -5.2999 0.0000 -0.0000 -25.9250 -66.3340 -36.0979 53.3557 7.1250 -0.0000 -0.0000 -83.1844 75.6167 -97.7110
